# xmcd
#
# Track frame offsets:
#	150
#	13342
#	27985
#	41312
#	59487
#	74057
#	85630
#	101782
#	120870
#	135307
#
# Disc length: 1984 seconds
#
# Revision: 0
# Processed by: cddbd v1.4PL0 Copyright (c) Steve Scherf et al.
# Submitted via: EasyCDDAExtractor 5.0.4.1
#
DISCID=8007be0a
DTITLE=Cledus T. Judd - Cledus Navidad
DYEAR=2002
DGENRE=Humour
TTITLE0=Cledus' Christmas Ball
TTITLE1=Stephon The Alternative Lifestyle Reindeer
TTITLE2=Hazel's Homemade Hallelujah Punch
TTITLE3=Grandma Got Run Over By A Reindeer
TTITLE4=Only 364 Shopping Days 'Til Christmas
TTITLE5=Tree's on Fire
TTITLE6=Don't Serve Beans
TTITLE7=Merry Christmas From The Whole Fam Damily
TTITLE8=Santa Claus Is Watchin' You
TTITLE9=All I Want For Christmas Is Two Gold front Teef
EXTD=
EXTT0=
EXTT1=
EXTT2=
EXTT3=
EXTT4=
EXTT5=
EXTT6=
EXTT7=
EXTT8=
EXTT9=
PLAYORDER=
